<svg width="48" height="48" viewBox="0 0 48 48" fill="none" xmlns="http://www.w3.org/2000/svg">
<rect x="0.5" y="0.5" width="47" height="47" rx="7.5" stroke="#F1ACEE"/>
<path d="M25.0052 12C24.8063 12 24.6155 12.079 24.4749 12.2197C24.3343 12.3603 24.2552 12.5511 24.2552 12.75C24.2552 12.9489 24.3343 13.1397 24.4749 13.2804C24.6155 13.421 24.8063 13.5 25.0052 13.5C25.5995 13.5005 26.1789 13.3137 26.6611 12.9663C27.1432 12.6188 27.5037 12.1282 27.6912 11.5642L27.6933 11.5576L28.0052 11.7135V13.2023C27.036 14.2769 26.5013 15.6738 26.5052 17.121V21.75C26.5052 21.9489 26.5843 22.1397 26.7249 22.2804C26.8655 22.421 27.0563 22.5 27.2552 22.5H33.2552C33.4541 22.5 33.6449 22.421 33.7856 22.2804C33.9262 22.1397 34.0052 21.9489 34.0052 21.75V20.1135L37.7552 21.5198V24C37.7552 24.1989 37.8343 24.3897 37.9749 24.5304C38.1155 24.671 38.3063 24.75 38.5052 24.75H38.5346L39.2364 42.2959L36.6698 43.5792C36.5452 43.6415 36.4404 43.7373 36.3672 43.8557C36.294 43.9742 36.2552 44.1107 36.2552 44.25V45.75C36.2552 45.9489 36.3343 46.1397 36.4749 46.2804C36.6155 46.421 36.8063 46.5 37.0052 46.5H43.7552C43.9497 46.5001 44.1367 46.4246 44.2766 46.2895C44.4166 46.1544 44.4985 45.9703 44.5052 45.7759L45.2297 24.75H45.2552C45.4541 24.75 45.6449 24.671 45.7856 24.5304C45.9262 24.3897 46.0052 24.1989 46.0052 24V12.75C46.0052 12.6546 45.987 12.5601 45.9515 12.4715L44.6726 9.27395C44.9848 8.85051 45.1794 8.35203 45.2368 7.82907L45.7618 7.30454C46.0995 6.96667 46.3343 6.53981 46.4388 6.07367C46.5434 5.60753 46.5134 5.12128 46.3523 4.67153C46.1913 4.22178 45.9058 3.82702 45.5291 3.5332C45.1524 3.23939 44.7001 3.05861 44.2247 3.01192L44.1885 2.93954C43.9261 2.41488 43.4942 1.99416 42.963 1.74555C42.4316 1.49694 41.832 1.43501 41.261 1.56979C40.6901 1.70456 40.1814 2.02814 39.8174 2.48812C39.4533 2.94808 39.2552 3.5175 39.2552 4.1041V7.50001C39.2551 7.90177 39.3359 8.29944 39.4928 8.66929C39.6498 9.03913 39.8796 9.37356 40.1687 9.6526L39.4917 10.6688L38.1664 11.3317C38.1383 11.346 35.2478 14.1972 35.2478 14.1972L32.9864 13.8204C32.8398 13.6044 32.6792 13.3985 32.5052 13.2039V11.8356L34.9371 11.2276C35.0373 11.2026 35.1314 11.157 35.2131 11.0939C35.295 11.0308 35.3629 10.9515 35.4126 10.8609C35.4624 10.7703 35.4929 10.6704 35.5022 10.5675C35.5114 10.4646 35.4993 10.3609 35.4667 10.2628L34.7167 8.01282C34.6669 7.8635 34.5714 7.73362 34.4437 7.64158C34.316 7.54955 34.1627 7.50002 34.0052 7.50001H25.0052C24.8063 7.50001 24.6155 7.57902 24.4749 7.71968C24.3343 7.86033 24.2552 8.0511 24.2552 8.25001V10.5C24.2552 10.6989 24.3343 10.8897 24.4749 11.0304C24.6155 11.171 24.8063 11.25 25.0052 11.25H26.2019C26.093 11.4748 25.9231 11.6645 25.7114 11.7971C25.4998 11.9298 25.255 12.0001 25.0052 12ZM32.5052 21H28.0052V17.1213C28.0022 16.0653 28.3844 15.0444 29.0802 14.25H31.4297C31.8104 14.6888 32.1003 15.1986 32.2829 15.75H31.0051C30.8061 15.75 30.6153 15.829 30.4747 15.9697C30.3341 16.1103 30.2551 16.3011 30.2551 16.5V18.75C30.2551 18.9489 30.3341 19.1397 30.4747 19.2804C30.6153 19.421 30.8061 19.5 31.0051 19.5H32.369L32.5051 19.551L32.5052 21ZM29.5052 12.75V12H31.0052V12.75H29.5052ZM43.0307 45H37.7552V44.7135L40.1822 43.5H43.0823L43.0307 45ZM43.1338 42H40.7258L40.0358 24.75H43.7289L43.1338 42ZM44.505 23.25H39.255V21.75H41.505C41.6489 21.75 41.7899 21.7086 41.9109 21.6306C42.0319 21.5527 42.128 21.4415 42.1877 21.3104L44.505 16.2125V23.25ZM40.755 4.1041C40.7549 3.85537 40.8389 3.61392 40.9933 3.41887C41.1476 3.22383 41.3633 3.08662 41.6054 3.02947C41.8474 2.97232 42.1017 2.99858 42.327 3.10401C42.5522 3.20944 42.7353 3.38784 42.8466 3.61032L43.0841 4.08545C43.1463 4.21007 43.2422 4.31487 43.3608 4.3881C43.4792 4.46132 43.6158 4.50007 43.7552 4.50001H43.9784C44.1802 4.50028 44.3776 4.56037 44.5454 4.67267C44.7131 4.78497 44.8439 4.94447 44.9211 5.13101C44.9984 5.31757 45.0185 5.52281 44.9792 5.72086C44.94 5.9189 44.8428 6.10086 44.7002 6.24376L44.5048 6.43932L42.7855 4.71967C42.6449 4.57904 42.4541 4.50003 42.2552 4.50001H40.7552L40.755 4.1041ZM40.755 6.00001H41.9443L43.7273 7.78304C43.6558 8.14844 43.4509 8.47417 43.1525 8.69692C42.8542 8.91966 42.4836 9.02347 42.113 8.98818C41.7423 8.95288 41.3981 8.78099 41.1471 8.50594C40.8962 8.23088 40.7565 7.87234 40.7552 7.50001L40.755 6.00001ZM39.255 12.4635L40.3403 11.9208C40.457 11.8625 40.5565 11.7746 40.629 11.6661L41.4753 10.3966C42.1302 10.5734 42.8257 10.5224 43.4479 10.2519L44.3777 12.5762C43.9589 12.2043 43.4179 11.9992 42.8579 12H42.5232C42.0742 11.9996 41.635 12.1313 41.2602 12.3784C40.8854 12.6255 40.5915 12.9774 40.4149 13.3901L39.8106 14.8002L39.2552 16.0961L39.255 12.4635ZM43.6526 14.2646L41.6498 14.3159L41.7933 13.981C41.8544 13.8382 41.9562 13.7164 42.0859 13.6309C42.2157 13.5453 42.3677 13.4998 42.5232 13.5H42.8579C42.9909 13.4988 43.1221 13.5315 43.2388 13.5953C43.3556 13.6589 43.4542 13.7514 43.5252 13.8639C43.6032 13.9835 43.6473 14.1219 43.6529 14.2646H43.6526ZM35.3816 15.7398C35.4993 15.7594 35.6201 15.7507 35.7337 15.7142C35.8474 15.6778 35.9507 15.6147 36.0352 15.5304L37.755 13.8106V16.8519L33.8718 15.8813C33.8418 15.7433 33.8074 15.6063 33.7677 15.471L35.3816 15.7398ZM33.1406 17.25C33.1514 17.2511 33.1622 17.252 33.1731 17.2526L39.0731 18.7276C39.246 18.7708 39.4286 18.751 39.5882 18.6719C39.7479 18.5927 39.8742 18.4592 39.9444 18.2954L41.1551 15.8291L43.0537 15.7805L41.0222 20.25H38.641L32.7684 18.0477C32.6841 18.0161 32.595 18 32.5051 18H31.7551V17.25H33.1406ZM28.0052 9.00001H33.4647L33.7876 9.96882L31.6629 10.5H28.9322L28.0052 10.0365V9.00001ZM25.7552 9.75001V9.00001H26.5052V9.75001H25.7552Z" fill="#F1ACEE"/>
<path d="M1.95458 27.6893L2.79055 28.0476C5.49301 29.2093 7.879 30.9997 9.75 33.2695V34.5H4.49998C4.30107 34.5 4.11031 34.579 3.96966 34.7197C3.82901 34.8604 3.74998 35.0511 3.74998 35.25V38.25C3.74998 38.4489 3.82901 38.6397 3.96966 38.7803C4.11031 38.921 4.30107 39 4.49998 39H4.57123L5.25373 45.825C5.27233 46.01 5.35898 46.1815 5.49686 46.3062C5.63475 46.4309 5.81406 46.5 5.99998 46.5H15C15.1859 46.5 15.3653 46.4309 15.5031 46.3062C15.641 46.1815 15.7276 46.01 15.7463 45.825L16.4288 39H16.5C16.6989 39 16.8896 38.921 17.0303 38.7803C17.171 38.6397 17.25 38.4489 17.25 38.25V35.25C17.25 35.0511 17.171 34.8604 17.0303 34.7197C16.8896 34.579 16.6989 34.5 16.5 34.5H11.25V31.3986C13.121 29.1287 15.507 27.3384 18.2094 26.1767L19.0454 25.8184C19.1498 25.7737 19.2427 25.7058 19.3169 25.6199C19.3913 25.5341 19.4452 25.4325 19.4745 25.3227C19.5038 25.213 19.5079 25.0981 19.4863 24.9866C19.4648 24.8752 19.4181 24.77 19.35 24.6791L18.7817 23.9213C18.2156 23.1684 17.3741 22.6708 16.4416 22.5376C15.5092 22.4044 14.562 22.6464 13.8078 23.2107L13.2371 23.6387C12.5086 23.6921 11.8145 23.9694 11.2496 24.4326V23.4388C13.1183 21.1725 15.5108 19.3953 18.2203 18.2608L18.2888 18.2327C18.3835 18.193 18.4692 18.1343 18.5405 18.0603C18.6116 17.9861 18.6668 17.8982 18.7027 17.8018C18.7385 17.7054 18.754 17.6028 18.7485 17.5001C18.743 17.3976 18.7163 17.2972 18.6704 17.2052L18.5503 16.9649C18.3288 16.5219 18.0171 16.1302 17.6353 15.8149C17.2535 15.4994 16.8099 15.2674 16.3331 15.1334C15.8563 14.9995 15.3568 14.9668 14.8667 15.0373C14.3765 15.1078 13.9064 15.2799 13.4867 15.5428L13.2727 15.6769C12.5317 15.7237 11.8242 16.002 11.25 16.4726V16.1083C12.7157 14.3157 14.5992 12.9106 16.7351 12.0163L16.7892 11.9937C16.9082 11.944 17.0123 11.8644 17.0917 11.7627C17.1709 11.661 17.2226 11.5405 17.2418 11.4129C17.2609 11.2854 17.2468 11.1551 17.2009 11.0346C17.1549 10.9141 17.0787 10.8075 16.9795 10.725L16.1489 10.0344C15.7619 9.71034 15.298 9.49106 14.802 9.39778C14.3059 9.30444 13.7941 9.34015 13.3158 9.50147L12.8138 9.66881C12.348 9.68878 11.8936 9.81853 11.4875 10.0475C11.0814 10.2764 10.7351 10.5981 10.477 10.9862L10.0688 11.5987C9.42985 10.9284 8.55399 10.5349 7.62861 10.5023L6.96645 10.2816C6.3933 10.0883 5.78013 10.0457 5.18572 10.1575C4.59131 10.2694 4.0356 10.532 3.57186 10.9203L2.52083 11.7942C2.42166 11.8767 2.34544 11.9833 2.29951 12.1039C2.25358 12.2243 2.23951 12.3547 2.25866 12.4822C2.2778 12.6097 2.3295 12.7302 2.40878 12.8319C2.48806 12.9337 2.59224 13.0132 2.71123 13.0629L2.77986 13.0916C5.48914 14.2262 7.88142 16.0034 9.75 18.2696V19.1823C9.17573 18.7115 8.46806 18.433 7.72695 18.3862L7.51292 18.2522C7.09319 17.9893 6.62315 17.8172 6.13295 17.7467C5.64276 17.6762 5.14324 17.7089 4.66645 17.8428C4.18965 17.9767 3.74612 18.2088 3.36431 18.5243C2.98249 18.8396 2.67082 19.2313 2.4493 19.6743L2.3292 19.9146C2.28323 20.0065 2.25664 20.1069 2.25109 20.2095C2.24554 20.3122 2.26114 20.4148 2.29692 20.5112C2.33272 20.6076 2.38793 20.6955 2.45913 20.7697C2.53034 20.8437 2.61602 20.9024 2.71086 20.9421L2.77948 20.9708C5.48892 22.1052 7.88135 23.8823 9.75 26.1487V26.3034C9.1852 25.8402 8.491 25.5628 7.76248 25.5094L7.19183 25.0814C6.43799 24.5162 5.4905 24.2735 4.55774 24.4067C3.62498 24.5399 2.78334 25.0382 2.21792 25.7919L1.64998 26.55C1.58185 26.6408 1.53523 26.746 1.51366 26.8575C1.49208 26.9691 1.49611 27.084 1.52545 27.1937C1.55478 27.3034 1.60865 27.405 1.68298 27.4909C1.75733 27.5767 1.85019 27.6446 1.95458 27.6893ZM11.3232 12.421L11.7251 11.8183C11.8587 11.6175 12.0399 11.4529 12.2526 11.3391C12.4652 11.2252 12.7027 11.1658 12.9439 11.166C13.0245 11.166 13.1046 11.153 13.1811 11.1275L13.7904 10.9244C14.009 10.8507 14.2418 10.83 14.4699 10.864C14.698 10.8981 14.9148 10.9858 15.1023 11.1201C13.7159 11.8258 12.4423 12.7342 11.3235 13.8151L11.3232 12.421ZM11.25 18.8964L11.7921 18.0835C11.9792 17.8021 12.2331 17.5713 12.5311 17.4118C12.8291 17.2522 13.1619 17.169 13.5 17.1694C13.6408 17.1694 13.7788 17.1297 13.8982 17.055L14.2833 16.8138C14.6965 16.5555 15.1881 16.4523 15.6703 16.5226C16.1526 16.5929 16.5941 16.8322 16.9164 17.1977C14.805 18.184 12.8862 19.5387 11.25 21.1981V18.8964ZM11.25 26.8558L11.792 26.0427C11.9792 25.7614 12.2332 25.5307 12.5312 25.3713C12.8292 25.2119 13.162 25.1287 13.5 25.129C13.6623 25.129 13.8202 25.0764 13.95 24.979L14.7078 24.4107C15.1426 24.0854 15.6884 23.9453 16.2262 24.0212C16.7638 24.0971 17.2496 24.3827 17.5775 24.8156C15.2078 25.84 13.0591 27.3137 11.25 29.1552V26.8558ZM14.3213 45H6.67873L6.07873 39H14.9213L14.3213 45ZM4.40211 12.1805L4.53055 12.0737C4.79854 11.8493 5.11966 11.6976 5.46315 11.633C5.80663 11.5683 6.16096 11.5929 6.49217 11.7046L7.2628 11.9615C7.33928 11.987 7.41937 12 7.49998 12C7.838 11.9996 8.17084 12.083 8.46886 12.2424C8.76687 12.4019 9.02081 12.6326 9.20801 12.9141L9.75 13.7271V16.0287C8.19697 14.4537 6.38887 13.1527 4.40211 12.1805ZM4.08336 19.9073C4.40563 19.5418 4.84724 19.3025 5.32949 19.2323C5.81173 19.1619 6.30328 19.2651 6.71651 19.5234L7.10164 19.7647C7.22105 19.8395 7.3591 19.8791 7.49998 19.879C7.838 19.8787 8.17084 19.962 8.46886 20.1215C8.76687 20.2809 9.02081 20.5117 9.20801 20.7931L9.75 21.6062V23.9078C8.11374 22.2484 6.19495 20.8937 4.08355 19.9073H4.08336ZM15.75 36V37.5H5.24998V36H15.75ZM4.77026 25.8918C5.03713 25.8529 5.30906 25.8673 5.57031 25.9342C5.83155 26.0012 6.07692 26.1193 6.2922 26.2817L7.04998 26.85C7.17981 26.9474 7.33771 27 7.49998 27C7.838 26.9996 8.17084 27.083 8.46886 27.2424C8.76687 27.4019 9.02081 27.6326 9.20801 27.9141L9.75 28.7271V31.0261C7.94083 29.1846 5.7921 27.7109 3.42251 26.6866C3.58378 26.4719 3.78585 26.2912 4.01713 26.1548C4.24841 26.0184 4.50435 25.929 4.77026 25.8918Z" fill="#F1ACEE"/>
<path d="M22.7552 8.25H21.2552C21.0563 8.25 20.8655 8.32902 20.7249 8.46967C20.5843 8.61032 20.5052 8.80109 20.5052 9C20.5052 9.19891 20.5843 9.38972 20.7249 9.53034C20.8655 9.67097 21.0563 9.75 21.2552 9.75H22.7552C22.9541 9.75 23.1449 9.67097 23.2856 9.53034C23.4262 9.38972 23.5052 9.19891 23.5052 9C23.5052 8.80109 23.4262 8.61032 23.2856 8.46967C23.1449 8.32902 22.9541 8.25 22.7552 8.25Z" fill="#F1ACEE"/>
<path d="M17.5052 9.75H19.0052C19.2041 9.75 19.3949 9.67097 19.5356 9.53034C19.6762 9.38972 19.7552 9.19891 19.7552 9C19.7552 8.80109 19.6762 8.61032 19.5356 8.46967C19.3949 8.32902 19.2041 8.25 19.0052 8.25H17.5052C17.3063 8.25 17.1155 8.32902 16.9749 8.46967C16.8343 8.61032 16.7552 8.80109 16.7552 9C16.7552 9.19891 16.8343 9.38972 16.9749 9.53034C17.1155 9.67097 17.3063 9.75 17.5052 9.75Z" fill="#F1ACEE"/>
<path d="M21.0181 6.9615L22.5181 7.46147C22.6119 7.49394 22.7111 7.50749 22.8101 7.50132C22.9092 7.49514 23.006 7.46939 23.095 7.42552C23.184 7.38167 23.2634 7.32058 23.3287 7.24581C23.3939 7.17104 23.4437 7.08406 23.475 6.98992C23.5064 6.89579 23.5188 6.79636 23.5115 6.69741C23.5042 6.59845 23.4773 6.50193 23.4324 6.41344C23.3875 6.32495 23.3255 6.24624 23.2499 6.18189C23.1744 6.11753 23.0869 6.06881 22.9924 6.03853L21.4924 5.53847C21.304 5.47654 21.0986 5.49178 20.9214 5.58087C20.7441 5.66996 20.6094 5.82564 20.5466 6.01384C20.4839 6.20203 20.4984 6.4074 20.5867 6.58501C20.6751 6.76262 20.8301 6.89799 21.0181 6.9615Z" fill="#F1ACEE"/>
<path d="M18.0181 5.96146L18.7681 6.21149C18.8617 6.24311 18.9605 6.25594 19.059 6.24924C19.1576 6.24255 19.2538 6.21645 19.3422 6.17248C19.4306 6.12849 19.5095 6.06748 19.5743 5.99294C19.6391 5.9184 19.6886 5.8318 19.7198 5.73811C19.751 5.64442 19.7634 5.54549 19.7562 5.44699C19.7491 5.34849 19.7227 5.25237 19.6783 5.16413C19.634 5.07589 19.5726 4.99729 19.4978 4.93282C19.423 4.86835 19.3362 4.8193 19.2424 4.78846L18.4924 4.53853C18.3986 4.50605 18.2994 4.4925 18.2003 4.49867C18.1013 4.50485 18.0044 4.5306 17.9155 4.57447C17.8264 4.61833 17.747 4.67941 17.6817 4.75419C17.6166 4.82895 17.5668 4.91594 17.5354 5.01007C17.5041 5.1042 17.4916 5.20364 17.499 5.30259C17.5063 5.40154 17.5332 5.49807 17.5781 5.58656C17.623 5.67505 17.685 5.75375 17.7605 5.8181C17.8361 5.88246 17.9236 5.93118 18.0181 5.96146Z" fill="#F1ACEE"/>
<path d="M21.2551 12.5001C21.3358 12.5001 21.4158 12.4871 21.4923 12.4615L22.9923 11.9615C23.0868 11.9312 23.1743 11.8824 23.2499 11.8181C23.3254 11.7537 23.3874 11.6751 23.4323 11.5866C23.4772 11.4981 23.5041 11.4016 23.5114 11.3026C23.5187 11.2036 23.5064 11.1042 23.475 11.0101C23.4436 10.916 23.3939 10.829 23.3286 10.7541C23.2634 10.6794 23.184 10.6183 23.095 10.5744C23.0059 10.5306 22.9091 10.5049 22.8101 10.4987C22.7111 10.4925 22.6118 10.5061 22.5181 10.5385L21.0181 11.0385C20.8489 11.0947 20.7055 11.2093 20.6131 11.3617C20.5209 11.5141 20.4859 11.6944 20.5144 11.8702C20.5429 12.0461 20.6331 12.2061 20.7689 12.3215C20.9046 12.4369 21.0769 12.5002 21.2551 12.5001Z" fill="#F1ACEE"/>
<path d="M18.7681 11.7885L18.0181 12.0385C17.9236 12.0688 17.8361 12.1176 17.7605 12.1819C17.685 12.2463 17.623 12.325 17.5781 12.4135C17.5332 12.502 17.5063 12.5984 17.499 12.6974C17.4916 12.7964 17.5041 12.8958 17.5354 12.9899C17.5668 13.084 17.6166 13.171 17.6817 13.2459C17.747 13.3206 17.8264 13.3817 17.9155 13.4256C18.0044 13.4694 18.1013 13.4951 18.2003 13.5013C18.2994 13.5075 18.3986 13.4939 18.4924 13.4615L19.2424 13.2115C19.3362 13.1807 19.423 13.1317 19.4978 13.0672C19.5726 13.0028 19.634 12.9241 19.6783 12.8359C19.7227 12.7477 19.7491 12.6515 19.7562 12.553C19.7634 12.4545 19.751 12.3556 19.7198 12.2619C19.6886 12.1682 19.6391 12.0816 19.5743 12.007C19.5095 11.9325 19.4306 11.8715 19.3422 11.8275C19.2538 11.7835 19.1576 11.7575 19.059 11.7507C18.9605 11.7441 18.8617 11.7569 18.7681 11.7885Z" fill="#F1ACEE"/>
</svg>
